<?xml version="1.0" encoding="UTF-8" standalone="no"?>
<!DOCTYPE svg PUBLIC "-//W3C//DTD SVG 1.1//EN" "http://www.w3.org/Graphics/SVG/1.1/DTD/svg11.dtd">
<svg version="1.1" xmlns="http://www.w3.org/2000/svg" xmlns:xlink="http://www.w3.org/1999/xlink" preserveAspectRatio="xMidYMid meet" viewBox="149.50000000000003 235.5 251.49999999999986 97.50000000000068" width="250.5" height="95"><defs><path d="M150 306L160.5 306L160.5 331L150 331L150 306Z" id="f10DHJt4AQ"></path><path d="M170 286L180.5 286L180.5 331L170 331L170 286Z" id="b5gMwZASoO"></path><path d="M190 266L200.5 266L200.5 331L190 331L190 266Z" id="c4JeDYUqXX"></path><path d="M210 246L220.5 246L220.5 331L210 331L210 246Z" id="d1kcKshCTm"></path><path d="M230 256L240.5 256L240.5 331L230 331L230 256Z" id="cQA0WdY1a"></path><path d="M250 286L260.5 286L260.5 331L250 331L250 286Z" id="h2DixeQLUH"></path><path d="M270 266L280.5 266L280.5 331L270 331L270 266Z" id="c7S0hpJ8ZP"></path><path d="M290 236L300.5 236L300.5 331L290 331L290 236Z" id="a1I9N7RsiM"></path><path d="M309.5 246L320 246L320 331L309.5 331L309.5 246Z" id="a5WCzI4JdU"></path><path d="M329.67 276L340.17 276L340.17 331L329.67 331L329.67 276Z" id="d6FC1vyGTm"></path><path d="M350 286L360.5 286L360.5 331L350 331L350 286Z" id="b7HU4Moxr"></path><path d="M370 306L380.5 306L380.5 331L370 331L370 306Z" id="idaleSc0k"></path><path d="M390 296L400.5 296L400.5 331L390 331L390 296Z" id="bgyRqeMMp"></path></defs><g><g><use xlink:href="#f10DHJt4AQ" opacity="1" fill="#ffffff" fill-opacity="1"></use></g><g><use xlink:href="#b5gMwZASoO" opacity="1" fill="#ffffff" fill-opacity="1"></use></g><g><use xlink:href="#c4JeDYUqXX" opacity="1" fill="#ffffff" fill-opacity="1"></use></g><g><use xlink:href="#d1kcKshCTm" opacity="1" fill="#ffffff" fill-opacity="1"></use></g><g><use xlink:href="#cQA0WdY1a" opacity="1" fill="#ffffff" fill-opacity="1"></use></g><g><use xlink:href="#h2DixeQLUH" opacity="1" fill="#ffffff" fill-opacity="1"></use></g><g><use xlink:href="#c7S0hpJ8ZP" opacity="1" fill="#ffffff" fill-opacity="1"></use></g><g><use xlink:href="#a1I9N7RsiM" opacity="1" fill="#ffffff" fill-opacity="1"></use></g><g><use xlink:href="#a5WCzI4JdU" opacity="1" fill="#ffffff" fill-opacity="1"></use></g><g><use xlink:href="#d6FC1vyGTm" opacity="1" fill="#ffffff" fill-opacity="1"></use></g><g><use xlink:href="#b7HU4Moxr" opacity="1" fill="#ffffff" fill-opacity="1"></use></g><g><use xlink:href="#idaleSc0k" opacity="1" fill="#ffffff" fill-opacity="1"></use></g><g><use xlink:href="#bgyRqeMMp" opacity="1" fill="#ffffff" fill-opacity="1"></use></g></g></svg>